<svg width="155" height="36" viewBox="0 0 155 36" fill="none" xmlns="http://www.w3.org/2000/svg">
<path d="M21.606 15.695C21.138 15.695 20.839 15.461 20.709 14.993C20.631 14.655 20.514 13.615 20.358 11.873C18.304 11.275 16.51 10.976 14.976 10.976C13.598 10.976 12.376 11.197 11.31 11.639C10.192 12.107 9.243 12.77 8.463 13.628C7.657 14.512 7.033 15.552 6.591 16.748C6.123 17.996 5.889 19.387 5.889 20.921C5.889 22.481 6.123 23.885 6.591 25.133C7.085 26.433 7.683 27.473 8.385 28.253C9.139 29.085 10.049 29.735 11.115 30.203C12.103 30.645 13.221 30.866 14.469 30.866C15.197 30.866 15.847 30.827 16.419 30.749C17.017 30.671 17.55 30.554 18.018 30.398C18.46 30.242 18.915 30.021 19.383 29.735C19.773 29.501 20.202 29.163 20.67 28.721C20.748 28.643 20.891 28.552 21.099 28.448C21.203 28.396 21.359 28.37 21.567 28.37C21.879 28.37 22.126 28.474 22.308 28.682L24.375 30.944C23.231 32.374 21.827 33.453 20.163 34.181C18.447 34.935 16.432 35.312 14.118 35.312C12.116 35.312 10.244 34.948 8.502 34.22C6.786 33.492 5.356 32.504 4.212 31.256C2.99 29.93 2.08 28.409 1.482 26.693C0.858 24.925 0.546 23.001 0.546 20.921C0.546 18.763 0.897 16.813 1.599 15.071C2.301 13.329 3.289 11.821 4.563 10.547C5.889 9.221 7.41 8.22 9.126 7.544C10.894 6.842 12.857 6.491 15.015 6.491C17.407 6.491 20.358 7.167 23.868 8.519V15.695H21.606ZM35.362 14.681C36.792 14.681 38.144 14.928 39.418 15.422C40.666 15.916 41.706 16.592 42.538 17.45C43.37 18.308 44.02 19.387 44.488 20.687C44.956 21.961 45.19 23.378 45.19 24.938C45.19 26.498 44.956 27.928 44.488 29.228C43.994 30.554 43.344 31.646 42.538 32.504C41.68 33.414 40.64 34.103 39.418 34.571C38.222 35.039 36.87 35.273 35.362 35.273C33.854 35.273 32.489 35.039 31.267 34.571C30.045 34.103 29.005 33.414 28.147 32.504C27.237 31.568 26.561 30.476 26.119 29.228C25.651 27.928 25.417 26.498 25.417 24.938C25.417 23.378 25.651 21.961 26.119 20.687C26.561 19.491 27.237 18.412 28.147 17.45C28.979 16.592 30.019 15.916 31.267 15.422C32.541 14.928 33.906 14.681 35.362 14.681ZM35.362 31.568C37.026 31.568 38.248 31.009 39.028 29.891C39.834 28.721 40.237 27.083 40.237 24.977C40.237 22.871 39.834 21.233 39.028 20.063C38.248 18.919 37.026 18.347 35.362 18.347C33.698 18.347 32.45 18.919 31.618 20.063C30.786 21.207 30.37 22.858 30.37 25.016C30.37 27.122 30.786 28.747 31.618 29.891C32.424 31.009 33.672 31.568 35.362 31.568ZM68.6714 31.49C69.3214 31.646 69.6464 32.049 69.6464 32.699V35H63.7574C63.1594 35 62.7564 34.701 62.5484 34.103L62.1974 32.504C61.7554 32.946 61.3264 33.336 60.9104 33.674C60.5204 33.986 60.0524 34.272 59.5064 34.532C58.9864 34.766 58.4404 34.961 57.8684 35.117C57.2184 35.247 56.6074 35.312 56.0354 35.312C54.9694 35.312 53.9944 35.13 53.1104 34.766C52.3564 34.454 51.6544 33.921 51.0044 33.167C50.4844 32.569 50.0554 31.776 49.7174 30.788C49.4314 29.8 49.2884 28.773 49.2884 27.707V18.854L47.2994 18.503C46.6494 18.347 46.3244 17.944 46.3244 17.294V14.993H54.0854V27.707C54.0854 28.903 54.3714 29.852 54.9434 30.554C55.4894 31.204 56.3344 31.529 57.4784 31.529C58.2584 31.529 59.0384 31.347 59.8184 30.983C60.5204 30.645 61.2094 30.138 61.8854 29.462V18.854C61.1574 18.724 60.6764 18.646 60.4424 18.62C60.2084 18.568 60.0394 18.529 59.9354 18.503C59.2854 18.347 58.9604 17.944 58.9604 17.294V14.993H66.7214V31.139L68.6714 31.49ZM93.5098 31.49C94.1598 31.646 94.4848 32.049 94.4848 32.699V35H86.7238V22.286C86.7238 21.09 86.4378 20.141 85.8658 19.439C85.3198 18.763 84.4748 18.425 83.3308 18.425C82.4988 18.425 81.7188 18.62 80.9908 19.01C80.2108 19.426 79.5218 19.933 78.9238 20.531V31.139L80.0548 31.334L80.6398 31.451L80.8738 31.49C81.5238 31.646 81.8488 32.049 81.8488 32.699V35H71.1628V32.699C71.1628 32.049 71.4878 31.646 72.1378 31.49L72.3718 31.451L72.9568 31.334L74.0878 31.139V18.854L72.9568 18.659C72.8268 18.633 72.7098 18.607 72.6058 18.581C72.5278 18.555 72.4498 18.542 72.3718 18.542L72.1378 18.503C71.4878 18.347 71.1628 17.944 71.1628 17.294V14.993H77.0518C77.6498 14.993 78.0528 15.292 78.2608 15.89L78.6118 17.45C78.9758 17.034 79.3918 16.657 79.8598 16.319C80.2238 16.033 80.7048 15.747 81.3028 15.461C81.9788 15.149 82.5118 14.954 82.9018 14.876C83.5518 14.746 84.1758 14.681 84.7738 14.681C85.9178 14.681 86.8928 14.863 87.6988 15.227C88.4528 15.539 89.1548 16.059 89.8048 16.787C90.3508 17.437 90.7798 18.243 91.0918 19.205C91.3778 20.063 91.5208 21.09 91.5208 22.286V31.139L92.6908 31.334C92.8208 31.36 92.9248 31.386 93.0028 31.412C93.1068 31.438 93.1978 31.451 93.2758 31.451L93.5098 31.49ZM104.069 35.312C102.327 35.312 100.988 34.818 100.052 33.83C99.1158 32.842 98.6478 31.49 98.6478 29.774V18.62H96.6198C96.4118 18.62 96.1908 18.529 95.9568 18.347C95.7488 18.191 95.6448 17.944 95.6448 17.606V15.656L98.8818 15.149L99.8958 9.689C99.9218 9.455 100.039 9.26 100.247 9.104C100.455 8.948 100.702 8.87 100.988 8.87H103.484V15.188H108.749V18.62H103.484V29.462C103.484 30.06 103.64 30.541 103.952 30.905C104.264 31.243 104.68 31.412 105.2 31.412C105.564 31.412 105.811 31.386 105.941 31.334L106.448 31.1L106.877 30.866C106.955 30.814 107.059 30.788 107.189 30.788C107.397 30.788 107.527 30.814 107.579 30.866L107.852 31.178L109.295 33.518C108.619 34.064 107.813 34.506 106.877 34.844C105.993 35.156 105.057 35.312 104.069 35.312ZM119.982 14.681C121.256 14.681 122.413 14.876 123.453 15.266C124.441 15.63 125.351 16.228 126.183 17.06C126.937 17.814 127.535 18.763 127.977 19.907C128.419 21.077 128.64 22.351 128.64 23.729C128.64 24.041 128.614 24.353 128.562 24.665C128.51 24.951 128.458 25.133 128.406 25.211C128.354 25.341 128.237 25.445 128.055 25.523C127.951 25.575 127.769 25.601 127.509 25.601H115.146C115.302 27.655 115.861 29.163 116.823 30.125C117.785 31.087 119.059 31.568 120.645 31.568C121.451 31.568 122.114 31.477 122.634 31.295C123.206 31.113 123.7 30.905 124.116 30.671C124.298 30.567 124.48 30.476 124.662 30.398C124.87 30.294 125.065 30.19 125.247 30.086C125.533 29.904 125.832 29.813 126.144 29.813C126.352 29.813 126.534 29.852 126.69 29.93C126.82 29.982 126.937 30.086 127.041 30.242L128.445 31.997C127.847 32.673 127.249 33.206 126.651 33.596C125.949 34.038 125.26 34.376 124.584 34.61C123.934 34.818 123.193 34.987 122.361 35.117C121.711 35.221 120.983 35.273 120.177 35.273C118.747 35.273 117.46 35.052 116.316 34.61C115.172 34.168 114.132 33.479 113.196 32.543C112.312 31.659 111.61 30.541 111.09 29.189C110.596 27.889 110.349 26.342 110.349 24.548C110.349 23.248 110.57 21.974 111.012 20.726C111.428 19.556 112.065 18.503 112.923 17.567C113.729 16.683 114.73 15.981 115.926 15.461C117.122 14.941 118.474 14.681 119.982 14.681ZM120.06 18.113C118.682 18.113 117.59 18.516 116.784 19.322C116.004 20.102 115.497 21.22 115.263 22.676H124.311C124.311 22.13 124.22 21.545 124.038 20.921C123.882 20.427 123.622 19.946 123.258 19.478C122.92 19.062 122.478 18.737 121.932 18.503C121.334 18.243 120.71 18.113 120.06 18.113ZM143.227 14.642C144.241 14.642 145.06 14.863 145.684 15.305L145.06 18.932C145.034 19.166 144.956 19.322 144.826 19.4C144.67 19.504 144.488 19.556 144.28 19.556C144.098 19.556 143.838 19.517 143.5 19.439C143.032 19.335 142.577 19.283 142.135 19.283C141.121 19.283 140.263 19.556 139.561 20.102C138.911 20.596 138.313 21.415 137.767 22.559V31.139L139.717 31.49C140.367 31.646 140.692 32.049 140.692 32.699V35H130.006V32.699C130.006 32.049 130.331 31.646 130.981 31.49L132.931 31.139V18.854L130.981 18.503C130.331 18.347 130.006 17.944 130.006 17.294V14.993H135.778C136.272 14.993 136.61 15.084 136.792 15.266C136.974 15.448 137.104 15.76 137.182 16.202L137.494 18.62C138.196 17.346 139.028 16.371 139.99 15.695C140.978 14.993 142.057 14.642 143.227 14.642Z" fill="#003399"/>
</svg>
